{"title":"Later, Live With Jools Holland s35eo1[DTV-RIP-Divx]","uid":5497249,"size":291171185,"categoryP":"video","categoryS":"music_videos","magnet":"?xt=urn:btih:80d48584cdfe46817b94fc1aff54cc5c21bdb183&amp;dn=Later%2C+Live+With+Jools+Holland+s35eo1%5BDTV-RIP-Divx%5D&amp;tr=udp%3A%2F%2Ftracker.openbittorrent.com%3A80&amp;tr=udp%3A%2F%2Fopen.demonii.com%3A1337&amp;tr=udp%3A%2F%2Ftracker.coppersurfer.tk%3A6969&amp;tr=udp%3A%2F%2Fexodus.desync.com%3A6969","seeders":1,"leechers":1,"uploader":"seanprince","files":-1,"time":1271342370,"description":"Later, Live With Jools Holland (BBC2, Weller, Hot Chips, Gogol Bordello,)s35eo1[DTV-RIP-Divx]\n\nFirst Shown On BBC 2 On Tuesday 13th April 2010\n\n\n\n\n\n\n\n\n\n\n\n\n\n\n\n\n\n\n\n\nDescription:\n\nEpisode 1 of Later Live... featured performances from Paul Weller, Hot Chip, Marina and the Diamonds and Gogol Bordello, plus a solo acoustic debut for Conor J O'Brien, a.k.a. Villagers.\n\n\nGeneral\nComplete name : Later, Live With Jools Holland s35eo1[DTV-RIP-Divx]\nFormat : AVI\nFormat/Info : Audio Video Interleave\nFile size : 278 MiB\nDuration : 29mn 48s\nOverall bit rate : 1 302 Kbps\n\nVideo\nID : 0\nFormat : MPEG-4 Visual\nFormat settings, BVOP : Yes\nFormat settings, QPel : No\nFormat settings, GMC : No warppoints\nFormat settings, Matrix : Default (H.263)\nMuxing mode : Packed bitstream\nCodec ID : DX50\nCodec ID/Hint : DivX 5\nDuration : 29mn 48s\nBit rate : 1 100 Kbps\nWidth : 688 pixels\nHeight : 384 pixels\nDisplay aspect ratio : 16:9\nFrame rate : 25.000 fps\nResolution : 8 bits\nColorimetry : 4:2:0\nScan type : Progressive\nBits/(Pixel*Frame) : 0.167\nStream size : 235 MiB (85%)\nTitle : Video\nWriting library : DivX 6.8.2 (UTC 2008-05-17)\n\nAudio\nID : 1\nFormat : AC-3\nFormat/Info : Audio Coding 3\nCodec ID : 2000\nDuration : 29mn 48s\nBit rate mode : Constant\nBit rate : 192 Kbps\nChannel(s) : 2 channels\nChannel positions : Front: L R\nSampling rate : 48.0 KHz\nStream size : 40.9 MiB (15%)\nAlignment : Split accross interleaves\nInterleave, duration : 40 ms (1.00 video frame)\nInterleave, preload duration : 500 ms","torrent":{"xt":"urn:btih:80d48584cdfe46817b94fc1aff54cc5c21bdb183","amp;dn":"Later%2C+Live+With+Jools+Holland+s35eo1%5BDTV-RIP-Divx%5D","amp;tr":["udp%3A%2F%2Ftracker.openbittorrent.com%3A80","udp%3A%2F%2Fopen.demonii.com%3A1337","udp%3A%2F%2Ftracker.coppersurfer.tk%3A6969","udp%3A%2F%2Fexodus.desync.com%3A6969"],"infoHash":"80d48584cdfe46817b94fc1aff54cc5c21bdb183","infoHashBuffer":{"type":"Buffer","data":[128,212,133,132,205,254,70,129,123,148,252,26,255,84,204,92,33,189,177,131]},"announce":[],"urlList":[]}}